<?xml version="1.0" encoding="UTF-8"?>
<!DOCTYPE svg PUBLIC "-//W3C//DTD SVG 1.1//EN" "http://www.w3.org/Graphics/SVG/1.1/DTD/svg11.dtd">
<!-- Creator: CorelDRAW -->
<svg xmlns="http://www.w3.org/2000/svg" xml:space="preserve" width="512px" height="512px" version="1.1" style="shape-rendering:geometricPrecision; text-rendering:geometricPrecision; image-rendering:optimizeQuality; fill-rule:evenodd; clip-rule:evenodd"
viewBox="0 0 512 512"
 xmlns:xlink="http://www.w3.org/1999/xlink">
 <defs>
  <style type="text/css">
   <![CDATA[
    .fil2 {fill:#607980}
    .fil3 {fill:#77959E}
    .fil1 {fill:#BB5944}
    .fil0 {fill:#E76E54}
   ]]>
  </style>
 </defs>
 <g id="Layer_x0020_1">
  <metadata id="CorelCorpID_0Corel-Layer"/>
  <path class="fil0" d="M404 512l-296 0c-6,0 -12,-5 -12,-12l-34 -385c0,-2 1,-3 1,-4 1,-1 3,-2 4,-2l378 0c1,0 3,1 4,2 0,1 1,2 1,4l-34 385c0,7 -6,12 -12,12z"/>
  <path class="fil1" d="M63 129l-1 -14c0,-2 1,-3 1,-4 1,-1 3,-2 4,-2l378 0c1,0 3,1 4,2 0,1 1,2 1,4l-1 14 -386 0z"/>
  <path class="fil2" d="M349 59l-186 0c-3,0 -5,-2 -5,-5l0 -49c0,-3 2,-5 5,-5l186 0c3,0 5,2 5,5l0 49c0,3 -2,5 -5,5z"/>
  <path class="fil1" d="M168 452c-14,0 -25,-12 -25,-25l0 -221c0,-14 11,-25 25,-25 14,0 25,11 25,25l0 221c0,13 -11,25 -25,25z"/>
  <path class="fil1" d="M256 452l0 0c-14,0 -25,-12 -25,-25l0 -221c0,-14 11,-25 25,-25 14,0 25,11 25,25l0 221c0,13 -11,25 -25,25z"/>
  <path class="fil1" d="M344 452c-14,0 -25,-12 -25,-25l0 -221c0,-14 11,-25 25,-25 14,0 25,11 25,25l0 221c0,13 -11,25 -25,25z"/>
  <path class="fil3" d="M476 119l-440 0c-2,0 -5,-2 -5,-5l0 -60c0,-3 3,-5 5,-5l440 0c2,0 5,2 5,5l0 60c0,3 -3,5 -5,5z"/>
  <path class="fil2" d="M31 89l0 -10 166 0c2,0 5,2 5,5 0,3 -3,5 -5,5l-166 0z"/>
 </g>
</svg>
