<?xml version="1.0" encoding="UTF-8"?>
<!DOCTYPE svg PUBLIC "-//W3C//DTD SVG 1.1//EN" "http://www.w3.org/Graphics/SVG/1.1/DTD/svg11.dtd">
<!-- Creator: CorelDRAW -->
<svg xmlns="http://www.w3.org/2000/svg" xml:space="preserve" width="2.66666in" height="2.66666in" version="1.1" style="shape-rendering:geometricPrecision; text-rendering:geometricPrecision; image-rendering:optimizeQuality; fill-rule:evenodd; clip-rule:evenodd"
viewBox="0 0 2667 2667"
 xmlns:xlink="http://www.w3.org/1999/xlink">
 <defs>
  <style type="text/css">
   <![CDATA[
    .fil2 {fill:#000002}
    .fil0 {fill:#1E2126}
    .fil4 {fill:#474D53}
    .fil1 {fill:#69B0EE}
    .fil5 {fill:#DCE1EB}
    .fil3 {fill:whitesmoke}
   ]]>
  </style>
 </defs>
 <g id="Layer_x0020_1">
  <metadata id="CorelCorpID_0Corel-Layer"/>
  <g id="_322021288">
   <path class="fil0" d="M2019 1750l-1371 0c-13,0 -23,-10 -23,-23l0 -892c0,-78 64,-141 141,-141l1134 0c78,0 142,63 142,141l0 892c0,13 -11,23 -23,23z"/>
   <path class="fil1" d="M1942 1733l0 -898c0,-23 -19,-41 -42,-41l-1134 0c-22,0 -41,18 -41,41l0 898 1217 0z"/>
   <g>
    <polygon class="fil2" points="1451,1192 1565,1278 1621,1146 "/>
    <path class="fil3" d="M1575 1337c-5,0 -10,-2 -14,-5l-175 -132c-7,-5 -10,-14 -9,-22 2,-9 8,-16 17,-18l260 -70c9,-2 18,1 23,7 6,7 8,16 4,24l-85 202c-3,6 -9,11 -15,13 -2,0 -4,1 -6,1z"/>
    <path class="fil3" d="M1459 1189c-11,0 -20,-8 -22,-18 -39,-181 -204,-171 -211,-170 -11,1 -21,-7 -24,-17 -2,-11 3,-22 13,-27 106,-49 198,-55 271,-18 106,54 132,180 133,186 2,12 -6,24 -18,26 -371,74 288,-53 -137,37 -2,1 -4,1 -5,1z"/>
    <g>
     <path class="fil3" d="M1006 1353c-6,0 -12,-2 -17,-7 -5,-7 -7,-16 -3,-24l86 -202c3,-6 8,-11 15,-13 7,-2 14,0 19,4l175 133c7,5 10,14 8,22 -1,9 -8,15 -16,18l-261 69c-2,0 -4,0 -6,0z"/>
     <path class="fil3" d="M1285 1529c-38,0 -73,-8 -104,-25 -107,-54 -132,-181 -133,-186 -3,-12 5,-24 18,-26 327,-63 -154,24 137,-37 13,-2 25,6 27,18 38,181 203,171 210,170 11,0 21,7 24,17 3,11 -3,22 -13,27 -60,28 -116,42 -166,42z"/>
    </g>
   </g>
   <path class="fil4" d="M2045 1973l-1424 0c-8,0 -16,-5 -20,-12l-118 -223c-4,-7 -4,-16 0,-23 4,-6 12,-11 20,-11l1661 0c8,0 15,5 19,11 5,7 5,16 1,23l-119 223c-4,7 -11,12 -20,12z"/>
   <path class="fil0" d="M1023 1704l621 0 0 135c0,12 -11,22 -23,22l-575 0c-13,0 -23,-10 -23,-22l0 -135z"/>
   <g>
    <circle class="fil5" cx="1199" cy="1783" r="28"/>
    <circle class="fil5" cx="1333" cy="1783" r="28"/>
    <circle class="fil5" cx="1468" cy="1783" r="28"/>
   </g>
  </g>
  <path id="_341084808" class="fil4" d="M1333 0c737,0 1334,597 1334,1333 0,737 -597,1334 -1334,1334 -736,0 -1333,-597 -1333,-1334 0,-736 597,-1333 1333,-1333zm0 113c674,0 1221,546 1221,1220 0,674 -547,1221 -1221,1221 -674,0 -1220,-547 -1220,-1221 0,-674 546,-1220 1220,-1220z"/>
  <path id="_341084880" class="fil1" d="M1333 75c695,0 1258,564 1258,1258 0,695 -563,1258 -1258,1258 -694,0 -1258,-563 -1258,-1258 0,-694 564,-1258 1258,-1258zm0 38c674,0 1221,546 1221,1220 0,674 -547,1221 -1221,1221 -674,0 -1220,-547 -1220,-1221 0,-674 546,-1220 1220,-1220z"/>
 </g>
</svg>
